<svg xmlns="http://www.w3.org/2000/svg" viewBox="0 0 474.11 474.11"><defs><style>.cls-1{fill:#224254;}.cls-2{fill:#fff;}</style></defs><g id="Layer_2" data-name="Layer 2"><g id="Layer_1-2" data-name="Layer 1"><circle class="cls-1" cx="237.06" cy="237.06" r="237.06"/><path class="cls-2" d="M108.21,323.5a10.44,10.44,0,0,1-6.93-2.17,8.54,8.54,0,0,1-3-5.77,17.28,17.28,0,0,1,1.3-8.17l58.65-146.2c1.45-3.84,3.28-6.57,5.52-8.17a12.57,12.57,0,0,1,7.47-2.41,12.23,12.23,0,0,1,7.25,2.41q3.36,2.4,5.52,8.17l58.66,146.2a16.36,16.36,0,0,1,1.51,8.29,8.54,8.54,0,0,1-2.81,5.77,10,10,0,0,1-6.71,2.05,10.59,10.59,0,0,1-7.58-2.65,22.1,22.1,0,0,1-5-8.17l-15.15-39,10.17,6.74H124.87l10-6.74-14.94,39q-2.16,5.76-4.76,8.29A9.52,9.52,0,0,1,108.21,323.5ZM170.76,180,138.07,266l-5.41-5.77h76.41l-5,5.77L171.19,180Z"/><path class="cls-2" d="M317.73,324a112.93,112.93,0,0,1-19.49-1.68,86.34,86.34,0,0,1-18-5.18,68.54,68.54,0,0,1-15.15-8.53,13.71,13.71,0,0,1-4.44-6A13.18,13.18,0,0,1,260,296a11.87,11.87,0,0,1,2.49-5.64,8.21,8.21,0,0,1,4.76-3q2.82-.6,6.28,2a69.25,69.25,0,0,0,20.56,10.22,81.65,81.65,0,0,0,23.6,3.25q18.39,0,27.16-7.34a23.74,23.74,0,0,0,8.77-19.11q0-9.62-6.28-15.27t-21-9l-23.16-5.29q-20.57-4.8-30.63-15.87t-10.06-29.81a49.88,49.88,0,0,1,4.22-20.68,48.46,48.46,0,0,1,11.8-16.23,51.44,51.44,0,0,1,18.18-10.46,71.37,71.37,0,0,1,23.16-3.61A81,81,0,0,1,345.1,154a61.61,61.61,0,0,1,21.11,11.78,10.56,10.56,0,0,1,3.79,5.41,13.88,13.88,0,0,1,.43,6.37,10.31,10.31,0,0,1-2.49,5.29,7.67,7.67,0,0,1-5,2.53q-3,.36-6.71-2.29a58.64,58.64,0,0,0-17.21-9,64.24,64.24,0,0,0-19.37-2.77,44.06,44.06,0,0,0-18.5,3.61,26.51,26.51,0,0,0-16.35,25.49q0,10.1,5.85,16.11t19.48,9.13l22.94,5.29q21.65,5.06,32.25,15.63T376,274.69A48.5,48.5,0,0,1,371.84,295a44.65,44.65,0,0,1-11.69,15.5,52.88,52.88,0,0,1-18.29,10A78,78,0,0,1,317.73,324Z"/></g></g></svg>